<svg width="15" height="15" viewBox="0 0 15 15" fill="none" xmlns="http://www.w3.org/2000/svg">
<path d="M4.16594 0C1.86906 0 0 1.86906 0 4.16594V9.93416C0 12.231 1.86906 14.1001 4.16594 14.1001H9.93416C12.231 14.1001 14.1001 12.231 14.1001 9.93416V4.16594C14.1001 1.86906 12.231 0 9.93416 0H4.16594ZM4.16594 0.640914H9.93416C11.8846 0.640914 13.4592 2.21548 13.4592 4.16594V9.93416C13.4592 11.8846 11.8846 13.4592 9.93416 13.4592H4.16594C2.21548 13.4592 0.640914 11.8846 0.640914 9.93416V4.16594C0.640914 2.21548 2.21548 0.640914 4.16594 0.640914ZM10.8955 2.56365C10.5416 2.56365 10.2546 2.8506 10.2546 3.20457C10.2546 3.55853 10.5416 3.84548 10.8955 3.84548C11.2495 3.84548 11.5364 3.55853 11.5364 3.20457C11.5364 2.8506 11.2495 2.56365 10.8955 2.56365ZM7.05005 3.52502C5.10703 3.52502 3.52502 5.10703 3.52502 7.05005C3.52502 8.99307 5.10703 10.5751 7.05005 10.5751C8.99307 10.5751 10.5751 8.99307 10.5751 7.05005C10.5751 5.10703 8.99307 3.52502 7.05005 3.52502ZM7.05005 4.16594C8.6467 4.16594 9.93416 5.4534 9.93416 7.05005C9.93416 8.6467 8.6467 9.93416 7.05005 9.93416C5.4534 9.93416 4.16594 8.6467 4.16594 7.05005C4.16594 5.4534 5.4534 4.16594 7.05005 4.16594Z" fill="white"/>
</svg>
