<svg width="14" height="14" viewBox="0 0 14 14" fill="none" xmlns="http://www.w3.org/2000/svg">
<path d="M7 0C5.05391 0 3.54916 0.143843 2.46777 0.306858C1.06344 0.518513 0 1.85099 0 3.43012V10.5699C0 12.1496 1.06365 13.4815 2.46777 13.6931C3.54947 13.857 5.05391 14 7 14C8.94609 14 10.4508 13.8562 11.5322 13.6931C12.937 13.4816 14 12.1494 14 10.5699V3.43012C14 1.85039 12.9363 0.518482 11.5322 0.306858C10.4508 0.143843 8.94609 0 7 0ZM7 1.16667C8.89971 1.16667 10.3574 1.30702 11.3914 1.46289C12.2889 1.59816 12.95 2.42763 12.95 3.43012V10.5699C12.95 11.5726 12.2897 12.4018 11.3914 12.5371C10.3574 12.693 8.89971 12.8333 7 12.8333C5.10029 12.8333 3.6423 12.6937 2.60859 12.5371C1.71112 12.4018 1.05 11.5724 1.05 10.5699V3.43012C1.05 2.42858 1.71132 1.59812 2.60859 1.46289C3.64261 1.30702 5.10029 1.16667 7 1.16667ZM6.16328 4.35069C5.91198 4.51014 5.8513 4.54902 5.6 4.70768V9.29232C5.8513 9.45176 5.91198 9.48986 6.16328 9.64931L9.78359 7.26584V6.73264L6.16328 4.35069Z" fill="white"/>
</svg>
